# The Great Editor v0.0.1
mtllib floor_1.mtl
o floor_1
v 57.08008055378107 -138.96528896547633 0
v 57.08008055378107 -138.96528896547633 -0.1
v 16.809325969280085 -155.26754777506181 0
v 16.809325969280085 -155.26754777506181 -0.1
v 9.23549673089969 -138.41110379011835 0
v 9.23549673089969 -138.41110379011835 -0.1
v 26.230473950365678 -131.66852619614096 0
v 26.230473950365678 -131.66852619614096 -0.1
v 23.551903563257472 -117.30594161894236 0
v 23.551903563257472 -117.30594161894236 -0.1
v 24.152266483456287 -82.62326877012988 0
v 24.152266483456287 -82.62326877012988 -0.1
v 25.755167049566147 -82.67738657969448 0
v 25.755167049566147 -82.67738657969448 -0.1
v 28.123604777036277 -68.64551614569422 0
v 28.123604777036277 -68.64551614569422 -0.1
v 45.238988899056714 -37.26366401944705 0
v 45.238988899056714 -37.26366401944705 -0.1
v 50.802571356090986 -30.191834925773048 0
v 50.802571356090986 -30.191834925773048 -0.1
v 75.36954950956019 -6.186250690634714 0
v 75.36954950956019 -6.186250690634714 -0.1
v 80.22092905577999 -2.3403340773294414 0
v 80.22092905577999 -2.3403340773294414 -0.1
v 82.43296840309914 -5.004800402099381 0
v 82.43296840309914 -5.004800402099381 -0.1
v 79.06465713038186 -7.593888349261481 0
v 79.06465713038186 -7.593888349261481 -0.1
v 80.3466119223943 -8.901021504411132 0
v 80.3466119223943 -8.901021504411132 -0.1
v 83.8909105507324 -6.010315572281838 0
v 83.8909105507324 -6.010315572281838 -0.1
v 86.20350663879658 -8.549099030437459 0
v 86.20350663879658 -8.549099030437459 -0.1
v 89.62207016325242 -7.317396490163569 0
v 89.62207016325242 -7.317396490163569 -0.1
v 90.47672410368337 -9.579688089221277 0
v 90.47672410368337 -9.579688089221277 -0.1
v 86.55542911277026 -12.571002999363527 0
v 86.55542911277026 -12.571002999363527 -0.1
v 89.34557830415451 -15.58739179810714 0
v 89.34557830415451 -15.58739179810714 -0.1
v 93.61884800630921 -11.892284177285463 0
v 93.61884800630921 -11.892284177285463 -0.1
v 98.79702390063342 -18.12622749353068 0
v 98.79702390063342 -18.12622749353068 -0.1
v 76.95902509781473 -35.92649443524368 0
v 76.95902509781473 -35.92649443524368 -0.1
v 75.72356147425063 -36.917487644944515 0
v 75.72356147425063 -36.917487644944515 -0.1
v 63.95424382564768 -52.443448415978324 0
v 63.95424382564768 -52.443448415978324 -0.1
v 50.421343774814474 -83.2763913309274 0
v 50.421343774814474 -83.2763913309274 -0.1
v 50.404889035419835 -83.90005207261831 0
v 50.404889035419835 -83.90005207261831 -0.1
v 50.46276792827464 -120.5005639758273 0
v 50.46276792827464 -120.5005639758273 -0.1
vt 57.08008055378107 -138.96528896547633 0
vt 16.809325969280085 -155.26754777506181 0
vt 9.23549673089969 -138.41110379011835 0
vt 26.230473950365678 -131.66852619614096 0
vt 23.551903563257472 -117.30594161894236 0
vt 24.152266483456287 -82.62326877012988 0
vt 25.755167049566147 -82.67738657969448 0
vt 28.123604777036277 -68.64551614569422 0
vt 45.238988899056714 -37.26366401944705 0
vt 50.802571356090986 -30.191834925773048 0
vt 75.36954950956019 -6.186250690634714 0
vt 80.22092905577999 -2.3403340773294414 0
vt 82.43296840309914 -5.004800402099381 0
vt 79.06465713038186 -7.593888349261481 0
vt 80.3466119223943 -8.901021504411132 0
vt 83.8909105507324 -6.010315572281838 0
vt 86.20350663879658 -8.549099030437459 0
vt 89.62207016325242 -7.317396490163569 0
vt 90.47672410368337 -9.579688089221277 0
vt 86.55542911277026 -12.571002999363527 0
vt 89.34557830415451 -15.58739179810714 0
vt 93.61884800630921 -11.892284177285463 0
vt 98.79702390063342 -18.12622749353068 0
vt 76.95902509781473 -35.92649443524368 0
vt 75.72356147425063 -36.917487644944515 0
vt 63.95424382564768 -52.443448415978324 0
vt 50.421343774814474 -83.2763913309274 0
vt 50.404889035419835 -83.90005207261831 0
vt 50.46276792827464 -120.5005639758273 0
vn 0 0 1
vn 0 0 -1
usemtl floor_1
s off
f 19/10/1 17/9/1 51/26/1
f 52/26/2 18/9/2 20/10/2
f 19/10/1 51/26/1 49/25/1
f 50/25/2 52/26/2 20/10/2
f 19/10/1 49/25/1 47/24/1
f 48/24/2 50/25/2 20/10/2
f 19/10/1 47/24/1 21/11/1
f 22/11/2 48/24/2 20/10/2
f 21/11/1 47/24/1 29/15/1
f 30/15/2 48/24/2 22/11/2
f 21/11/1 29/15/1 27/14/1
f 28/14/2 30/15/2 22/11/2
f 21/11/1 27/14/1 23/12/1
f 24/12/2 28/14/2 22/11/2
f 23/12/1 27/14/1 25/13/1
f 26/13/2 28/14/2 24/12/2
f 35/18/1 33/17/1 37/19/1
f 38/19/2 34/17/2 36/18/2
f 43/22/1 41/21/1 45/23/1
f 46/23/2 42/21/2 44/22/2
f 45/23/1 41/21/1 47/24/1
f 48/24/2 42/21/2 46/23/2
f 1/1/1 57/29/1 7/4/1
f 8/4/2 58/29/2 2/1/2
f 1/1/1 7/4/1 3/2/1
f 4/2/2 8/4/2 2/1/2
f 3/2/1 7/4/1 5/3/1
f 6/3/2 8/4/2 4/2/2
f 11/6/1 9/5/1 13/7/1
f 14/7/2 10/5/2 12/6/2
f 15/8/1 13/7/1 53/27/1
f 54/27/2 14/7/2 16/8/2
f 15/8/1 53/27/1 51/26/1
f 52/26/2 54/27/2 16/8/2
f 15/8/1 51/26/1 17/9/1
f 18/9/2 52/26/2 16/8/2
f 55/28/1 53/27/1 13/7/1
f 14/7/2 54/27/2 56/28/2
f 55/28/1 13/7/1 9/5/1
f 10/5/2 14/7/2 56/28/2
f 55/28/1 9/5/1 57/29/1
f 58/29/2 10/5/2 56/28/2
f 57/29/1 9/5/1 7/4/1
f 8/4/2 10/5/2 58/29/2
f 47/24/1 41/21/1 39/20/1
f 40/20/2 42/21/2 48/24/2
f 47/24/1 39/20/1 29/15/1
f 30/15/2 40/20/2 48/24/2
f 29/15/1 39/20/1 33/17/1
f 34/17/2 40/20/2 30/15/2
f 29/15/1 33/17/1 31/16/1
f 32/16/2 34/17/2 30/15/2
f 33/17/1 39/20/1 37/19/1
f 38/19/2 40/20/2 34/17/2
