# The Great Editor v0.0.1
mtllib floor_1.mtl
o floor_1
v 54.701743864040196 -133.17506859191482 0
v 54.701743864040196 -133.17506859191482 -0.1
v 16.10893738722675 -148.79806661776757 0
v 16.10893738722675 -148.79806661776757 -0.1
v 8.850684367112205 -132.64397446553008 0
v 8.850684367112205 -132.64397446553008 -0.1
v 25.13753753576711 -126.1823376046351 0
v 25.13753753576711 -126.1823376046351 -0.1
v 22.570574248121744 -112.41819405148642 0
v 22.570574248121744 -112.41819405148642 -0.1
v 23.145922046645612 -79.18063257137447 0
v 23.145922046645612 -79.18063257137447 -0.1
v 24.682035089167556 -79.23249547220722 0
v 24.682035089167556 -79.23249547220722 -0.1
v 26.951787911326434 -65.78528630629029 0
v 26.951787911326434 -65.78528630629029 -0.1
v 43.35403102826269 -35.711011351970086 0
v 43.35403102826269 -35.711011351970086 -0.1
v 48.6857975495872 -28.93384180386584 0
v 48.6857975495872 -28.93384180386584 -0.1
v 72.22915161332851 -5.928490245191601 0
v 72.22915161332851 -5.928490245191601 -0.1
v 76.8783903451225 -2.2428201574407147 0
v 76.8783903451225 -2.2428201574407147 -0.1
v 78.99826138630335 -4.796267052011907 0
v 78.99826138630335 -4.796267052011907 -0.1
v 75.77029641661595 -7.27747633470892 0
v 75.77029641661595 -7.27747633470892 -0.1
v 76.99883642562789 -8.530145608394001 0
v 76.99883642562789 -8.530145608394001 -0.1
v 80.39545594445188 -5.759885756770095 0
v 80.39545594445188 -5.759885756770095 -0.1
v 82.61169386218006 -8.192886570835899 0
v 82.61169386218006 -8.192886570835899 -0.1
v 85.88781723978357 -7.012504969740087 0
v 85.88781723978357 -7.012504969740087 -0.1
v 86.70686059936322 -9.180534418837057 0
v 86.70686059936322 -9.180534418837057 -0.1
v 82.94895289973816 -12.04721120772338 0
v 82.94895289973816 -12.04721120772338 -0.1
v 85.62284587481474 -14.937917139852676 0
v 85.62284587481474 -14.937917139852676 -0.1
v 89.71806267271299 -11.396772336565236 0
v 89.71806267271299 -11.396772336565236 -0.1
v 94.68048123810702 -17.37096801463357 0
v 94.68048123810702 -17.37096801463357 -0.1
v 73.75239905207246 -34.42955716710853 0
v 73.75239905207246 -34.42955716710853 -0.1
v 72.5684130794902 -35.37925899307183 0
v 72.5684130794902 -35.37925899307183 -0.1
v 61.2894836662457 -50.25830473197923 0
v 61.2894836662457 -50.25830473197923 -0.1
v 48.32045445086387 -79.80654169213875 0
v 48.32045445086387 -79.80654169213875 -0.1
v 48.30468532561068 -80.40421656959255 0
v 48.30468532561068 -80.40421656959255 -0.1
v 48.36015259792986 -115.47970714350117 0
v 48.36015259792986 -115.47970714350117 -0.1
vt 54.701743864040196 -133.17506859191482 0
vt 16.10893738722675 -148.79806661776757 0
vt 8.850684367112205 -132.64397446553008 0
vt 25.13753753576711 -126.1823376046351 0
vt 22.570574248121744 -112.41819405148642 0
vt 23.145922046645612 -79.18063257137447 0
vt 24.682035089167556 -79.23249547220722 0
vt 26.951787911326434 -65.78528630629029 0
vt 43.35403102826269 -35.711011351970086 0
vt 48.6857975495872 -28.93384180386584 0
vt 72.22915161332851 -5.928490245191601 0
vt 76.8783903451225 -2.2428201574407147 0
vt 78.99826138630335 -4.796267052011907 0
vt 75.77029641661595 -7.27747633470892 0
vt 76.99883642562789 -8.530145608394001 0
vt 80.39545594445188 -5.759885756770095 0
vt 82.61169386218006 -8.192886570835899 0
vt 85.88781723978357 -7.012504969740087 0
vt 86.70686059936322 -9.180534418837057 0
vt 82.94895289973816 -12.04721120772338 0
vt 85.62284587481474 -14.937917139852676 0
vt 89.71806267271299 -11.396772336565236 0
vt 94.68048123810702 -17.37096801463357 0
vt 73.75239905207246 -34.42955716710853 0
vt 72.5684130794902 -35.37925899307183 0
vt 61.2894836662457 -50.25830473197923 0
vt 48.32045445086387 -79.80654169213875 0
vt 48.30468532561068 -80.40421656959255 0
vt 48.36015259792986 -115.47970714350117 0
vn 0 0 1
vn 0 0 -1
usemtl floor_1
s off
f 19/10/1 17/9/1 51/26/1
f 52/26/2 18/9/2 20/10/2
f 19/10/1 51/26/1 49/25/1
f 50/25/2 52/26/2 20/10/2
f 19/10/1 49/25/1 47/24/1
f 48/24/2 50/25/2 20/10/2
f 19/10/1 47/24/1 21/11/1
f 22/11/2 48/24/2 20/10/2
f 21/11/1 47/24/1 29/15/1
f 30/15/2 48/24/2 22/11/2
f 21/11/1 29/15/1 27/14/1
f 28/14/2 30/15/2 22/11/2
f 21/11/1 27/14/1 23/12/1
f 24/12/2 28/14/2 22/11/2
f 23/12/1 27/14/1 25/13/1
f 26/13/2 28/14/2 24/12/2
f 35/18/1 33/17/1 37/19/1
f 38/19/2 34/17/2 36/18/2
f 43/22/1 41/21/1 45/23/1
f 46/23/2 42/21/2 44/22/2
f 45/23/1 41/21/1 47/24/1
f 48/24/2 42/21/2 46/23/2
f 1/1/1 57/29/1 7/4/1
f 8/4/2 58/29/2 2/1/2
f 1/1/1 7/4/1 3/2/1
f 4/2/2 8/4/2 2/1/2
f 3/2/1 7/4/1 5/3/1
f 6/3/2 8/4/2 4/2/2
f 11/6/1 9/5/1 13/7/1
f 14/7/2 10/5/2 12/6/2
f 15/8/1 13/7/1 53/27/1
f 54/27/2 14/7/2 16/8/2
f 15/8/1 53/27/1 51/26/1
f 52/26/2 54/27/2 16/8/2
f 15/8/1 51/26/1 17/9/1
f 18/9/2 52/26/2 16/8/2
f 55/28/1 53/27/1 13/7/1
f 14/7/2 54/27/2 56/28/2
f 55/28/1 13/7/1 9/5/1
f 10/5/2 14/7/2 56/28/2
f 55/28/1 9/5/1 57/29/1
f 58/29/2 10/5/2 56/28/2
f 57/29/1 9/5/1 7/4/1
f 8/4/2 10/5/2 58/29/2
f 47/24/1 41/21/1 39/20/1
f 40/20/2 42/21/2 48/24/2
f 47/24/1 39/20/1 29/15/1
f 30/15/2 40/20/2 48/24/2
f 29/15/1 39/20/1 33/17/1
f 34/17/2 40/20/2 30/15/2
f 29/15/1 33/17/1 31/16/1
f 32/16/2 34/17/2 30/15/2
f 33/17/1 39/20/1 37/19/1
f 38/19/2 40/20/2 34/17/2
